<mxfile host="app.diagrams.net" modified="2023-08-30T02:13:24.559Z" agent="Mozilla/5.0 (X11; Linux x86_64) AppleWebKit/537.36 (KHTML, like Gecko) Chrome/116.0.0.0 Safari/537.36" version="21.6.9" etag="N5_muowWMHcOj6Sx6eiu" type="github">
  <diagram name="Page-1" id="RmdNxjoiRvotJxNvjJFT">
    <mxGraphModel>
      <root>
        <mxCell id="0" />
        <mxCell id="1" parent="0" />
      </root>
    </mxGraphModel>
  </diagram>
</mxfile>
